# xmcd CD database file
#
# Track frame offsets:
#	150
#	16560
#	34337
#	54743
#	69280
#	112551
#	155420
#	182121
#	208594
#	214867
#	244198
#	273205
#	305262
#
# Disc length: 4615 seconds
#
# Revision: 1
# Processed by: cddbd v1.5.2PL0 Copyright (c) Steve Scherf et al.
# Submitted via: CDex 1.81
#
DISCID=a612050d
DTITLE=Nobuo Hara and Sharps And Flats - At The Jazz Festival '68-'70
DYEAR=1900
DGENRE=Jazz
TTITLE0=Swanee
TTITLE1=Caravan
TTITLE2=Mony Mony
TTITLE3=Tumblin' Tambourine
TTITLE4=Forest Flower
TTITLE5=Spanish Lady
TTITLE6=Wednesday Night Prayer Meeting
TTITLE7=Sabushi
TTITLE8=3-2-1-0
TTITLE9=Little Giant
TTITLE10=Dark Horse
TTITLE11=Sumie
TTITLE12=Let's Roll In Sake
EXTD=
EXTT0=
EXTT1=
EXTT2=
EXTT3=
EXTT4=
EXTT5=
EXTT6=
EXTT7=
EXTT8=
EXTT9=
EXTT10=
EXTT11=
EXTT12=
PLAYORDER=
